<?xml version="1.0" encoding="UTF-8" standalone="no"?>
<!-- Created with Inkscape (http://www.inkscape.org/) -->

<svg
   width="512"
   height="512"
   viewBox="0 0 135.46667 135.46667"
   version="1.1"
   id="svg1"
   sodipodi:docname="logo-512.svg"
   inkscape:version="1.4 (e7c3feb100, 2024-10-09)"
   inkscape:export-filename="logo-512.png"
   inkscape:export-xdpi="96"
   inkscape:export-ydpi="96"
   xmlns:inkscape="http://www.inkscape.org/namespaces/inkscape"
   xmlns:sodipodi="http://sodipodi.sourceforge.net/DTD/sodipodi-0.dtd"
   xmlns:xlink="http://www.w3.org/1999/xlink"
   xmlns="http://www.w3.org/2000/svg"
   xmlns:svg="http://www.w3.org/2000/svg">
  <sodipodi:namedview
     id="namedview1"
     pagecolor="#ffffff"
     bordercolor="#000000"
     borderopacity="0.25"
     inkscape:showpageshadow="2"
     inkscape:pageopacity="0.0"
     inkscape:pagecheckerboard="0"
     inkscape:deskcolor="#d1d1d1"
     inkscape:zoom="1.8300781"
     inkscape:cx="256"
     inkscape:cy="256"
     inkscape:window-width="2048"
     inkscape:window-height="1124"
     inkscape:window-x="0"
     inkscape:window-y="0"
     inkscape:window-maximized="1"
     inkscape:current-layer="layer2"
     inkscape:export-bgcolor="#ffffffff" />
  <defs
     id="defs1">
    <clipPath
       clipPathUnits="userSpaceOnUse"
       id="clipPath141">
      <path
         d="M 0,512 H 512 V 0 H 0 Z"
         transform="translate(-348.95901,-227.4456)"
         id="path141" />
    </clipPath>
  </defs>
  <g
     id="layer1"
     style="display:inline">
    <path
       style="fill:none;stroke:#023e8a;stroke-width:1.76389;stroke-linecap:round;stroke-linejoin:round;stroke-dasharray:none"
       id="path6"
       d="m 67.733339,6.243576 53.251691,30.744882 0,61.489762 -53.251694,30.74488 -53.251695,-30.744883 2e-6,-61.489762 z" />
    <path
       style="fill:#023e8a;stroke:#023e8a;stroke-width:1.76389;stroke-linecap:round;stroke-linejoin:round;stroke-dasharray:none"
       id="path7"
       d="m 67.733339,6.243576 53.251691,30.744882 0,61.489762 -53.251694,30.74488 -53.251695,-30.744883 2e-6,-61.489762 z"
       transform="matrix(0.85405809,0,0,0.85405809,9.8851324,9.8851324)" />
  </g>
  <g
     id="layer2">
    <g
       id="g8"
       transform="translate(0,0.07046664)">
      <path
         style="font-weight:800;font-size:25.4px;line-height:1.1;font-family:'Open Sans';-inkscape-font-specification:'Open Sans, Ultra-Bold';font-variant-caps:all-small-caps;text-align:center;text-anchor:middle;display:inline;fill:#4895ef;stroke-width:1.76389;stroke-linecap:round;stroke-linejoin:round"
         d="m 28.898437,49.601562 v 18.13086 h 7.056641 c 2.133203,0 3.814908,-0.469531 5.046875,-1.41211 1.240234,-0.950845 1.861328,-2.249153 1.861328,-3.894531 0,-1.107942 -0.251497,-2.010547 -0.755859,-2.705078 -0.504362,-0.694531 -1.31888,-1.190625 -2.44336,-1.488281 v -0.123047 c 0.851629,-0.206706 1.537696,-0.669336 2.058594,-1.388672 0.520898,-0.719335 0.78125,-1.588476 0.78125,-2.605469 0,-1.546158 -0.599935,-2.682551 -1.798828,-3.410156 -1.190625,-0.735872 -3.018489,-1.103515 -5.482422,-1.103516 z m 17.115235,0 v 18.13086 h 5.865234 c 3.017904,0 5.35957,-0.817969 7.021485,-2.455078 1.670182,-1.63711 2.503906,-3.967969 2.503906,-6.994141 0,-2.811198 -0.79336,-4.960937 -2.38086,-6.449219 -1.579232,-1.488281 -3.823958,-2.232421 -6.734375,-2.232422 z m 29.40625,0.01199 v -0.01199 H 64.654297 v 18.13086 h 0.0038 z m -4.021793,6.771215 h -1.845395 v -2.851563 h 3.539093 z M 33.796875,53.308594 h 1.376953 c 1.537891,0 2.306641,0.508398 2.306641,1.52539 0,0.570508 -0.193425,1.001628 -0.582032,1.291016 -0.380338,0.289388 -0.922199,0.433594 -1.625,0.433594 h -1.476562 z m 17.115234,0.248047 h 1.425782 c 1.339453,0 2.337044,0.401107 2.990234,1.203125 0.661459,0.802018 0.992187,2.035351 0.992187,3.697265 10e-7,1.77767 -0.348437,3.100586 -1.042968,3.96875 -0.694532,0.859896 -1.785156,1.289063 -3.273438,1.289063 h -1.091797 z m -17.115234,6.585937 h 1.625 c 0.777213,0 1.368294,0.161914 1.773437,0.484375 0.413412,0.322461 0.621094,0.785091 0.621094,1.388672 0,1.289843 -0.765299,1.935547 -2.294922,1.935547 h -1.724609 z"
         id="text7"
         aria-label="BDEPL"
         transform="translate(-0.52916668,-0.52916668)" />
      <path
         id="path8"
         d="m 64.658138,67.732422 h 10.761784 v -3.992188 h -5.867188 v -3.423828 h 5.431641 v -3.93164 h -3.586246 z m 8.433689,-14.199219 h 2.328095 v -3.919652 z m 5.501923,-3.931641 v 18.13086 h 4.900391 V 61.71875 h 1.375 c 2.199349,0 3.895312,-0.550717 5.085937,-1.650391 1.198893,-1.107943 1.798828,-2.673502 1.798828,-4.699218 0,-1.843816 -0.575325,-3.267123 -1.724609,-4.267579 -1.149283,-1.000455 -2.869856,-1.499999 -5.160156,-1.5 z m 16.048828,0 v 18.13086 H 106.52539 V 63.777344 H 99.541016 V 49.601562 Z m -11.148437,3.955079 h 1.263671 c 1.355991,0 2.035157,0.612239 2.035157,1.835937 0,0.727604 -0.219987,1.299479 -0.658203,1.712891 -0.429948,0.413411 -1.012175,0.61914 -1.748047,0.61914 h -0.892578 z"
         style="font-weight:800;font-size:25.4px;line-height:1.1;font-family:'Open Sans';-inkscape-font-specification:'Open Sans, Ultra-Bold';font-variant-caps:all-small-caps;text-align:center;text-anchor:middle;display:inline;fill:#ffffff;stroke-width:1.76389;stroke-linecap:round;stroke-linejoin:round" />
    </g>
    <g
       id="g9"
       transform="matrix(1.3203594,0,0,1.3203594,-114.43394,-36.752854)">
      <g
         id="g13"
         transform="matrix(0.26458334,0,0,0.26458334,70.485187,13.592968)">
        <path
           class="cls-14"
           d="m 305.1,305.1 v -21.5 c 0,-2.1 -1.7,-3.8 -3.8,-3.8 h -13.9 c 0,0 -13.9,0 -13.9,0 -2.1,0 -3.8,1.7 -3.8,3.8 v 21.5 c 0,0 17.7,0 17.7,0 z m -32.8,-2.5 v -18.9 c 0,-0.7 0.5,-1.3 1.2,-1.3 h 13.9 c 0,0 13.9,0 13.9,0 0.7,0 1.3,0.6 1.3,1.3 v 18.9 c 0,0 -15.1,0 -15.1,0 z"
           id="path11"
           style="fill:#ffffff;stroke-width:0px" />
        <path
           class="cls-14"
           d="m 287.5,306.3 h -20.2 c 0,2.1 1.7,3.8 3.8,3.8 h 16.4 c 0,0 16.4,0 16.4,0 2.1,0 3.8,-1.7 3.8,-3.8 z"
           id="path12"
           style="fill:#ffffff;stroke-width:0px" />
      </g>
      <g
         id="g14"
         transform="matrix(0.26458334,0,0,0.26458334,70.013432,13.123333)">
        <path
           id="path1-73"
           class="cls-3"
           d="m 166.1,279.2 c -0.3,-0.2 -0.7,-0.2 -1.1,0 l -18.9,8.8 c -0.6,0.3 -0.9,1 -0.6,1.7 0.1,0.3 0.4,0.5 0.7,0.6 l 18.9,7.6 c 0.3,0.1 0.6,0.1 0.9,0 l 14.7,-5.8 v 14.8 c -1.4,0 -2.5,1.1 -2.5,2.5 v 5 c 0,0 7.6,0 7.6,0 v -5 c 0,-1.4 -1.1,-2.5 -2.5,-2.5 v -15.8 c 0,0 1.7,-0.7 1.7,-0.7 0.6,-0.3 1,-1 0.7,-1.6 -0.1,-0.3 -0.3,-0.5 -0.6,-0.7 l -18.9,-8.8 z"
           style="fill:#4895ef;stroke-width:0px" />
        <path
           id="path2-1"
           class="cls-3"
           d="m 155.9,296.7 c -0.7,-0.2 -1.4,0 -1.6,0.7 0,0 0,0 0,0 l -1.3,4.3 c -0.2,0.6 0.1,1.3 0.7,1.5 l 11.3,4.5 c 0.3,0.1 0.6,0.1 0.9,0 l 11.3,-4.5 c 0.6,-0.2 0.9,-0.9 0.7,-1.5 l -1.3,-4.3 c -0.2,-0.7 -0.9,-1.1 -1.6,-0.9 0,0 0,0 0,0 l -9.6,3.6 -9.6,-3.6 z"
           style="fill:#4895ef;stroke-width:0px" />
      </g>
      <path
         class="cls-3"
         d="m 133.39112,86.842871 c -0.44979,0 -0.84667,0.15875 -1.16417,0.47625 l -6.32354,6.297084 -0.0794,0.07937 c -0.29105,0.291041 -0.4498,0.687916 -0.4498,1.11125 0,0.899583 0.74084,1.640416 1.64042,1.640416 0.39688,0 0.79375,-0.15875 1.08479,-0.449791 l 3.20146,-3.175 v 1.719791 c 0,0 0.39688,-1.349375 0.39688,-1.349375 l 0.37041,0.608542 v -1.719792 c 0,0 2.46063,-2.460625 2.46063,-2.460625 0.3175,-0.3175 0.47625,-0.714375 0.47625,-1.164166 0,-0.899584 -0.74084,-1.640417 -1.64042,-1.640417 z m -5.34458,8.89 c -0.26459,0.291042 -0.635,0.449792 -1.00542,0.449792 -0.74083,0 -1.37583,-0.608542 -1.34938,-1.375833 0,-0.370417 0.15875,-0.740834 0.4498,-1.005417 0.26458,-0.238125 0.58208,-0.343958 0.92604,-0.343958 0.23812,0 0.47625,0.07937 0.66146,0.185208 0.37041,0.211667 0.635,0.582083 0.68791,1.031875 0,0.05292 0,0.105833 0,0.15875 0,0.343958 -0.13229,0.661458 -0.37041,0.926042 z m 3.91583,-3.836458 c -0.0529,0.132292 -0.15875,0.264583 -0.26458,0.396875 -0.0794,0.07937 -0.1323,0.15875 -0.23813,0.211667 -0.0265,0 -0.0529,0.02646 -0.0794,0.05292 0,0 -0.0265,0 -0.0529,0.02646 0,0 -0.0529,0 -0.0794,0.02646 0,0 -0.0529,0 -0.0529,0.02646 0,0 0,-0.02646 0,-0.05292 v 0 c 0,-0.05292 0.0265,-0.07937 0.0529,-0.132292 0.0265,-0.07937 0.0529,-0.185208 0.0529,-0.291042 0,-0.05292 0,-0.07937 0,-0.132291 0,-0.820209 -0.66146,-1.508125 -1.50812,-1.508125 -0.10584,0 -0.18521,0 -0.26459,0 0,0 0,0 -0.0529,0 -0.0265,0 -0.0794,0 -0.10584,0 0,0 0,0 0,0 0,0 -0.0529,0 -0.0794,0 0,0 0,0 -0.0265,0 0,0 -0.0529,0 -0.0529,0 0,0 0,-0.05292 0.0265,-0.05292 0,-0.05292 0.0529,-0.07937 0.0794,-0.132292 0.0794,-0.105833 0.15875,-0.211666 0.26458,-0.3175 0.26458,-0.264583 0.635,-0.396875 1.00542,-0.396875 0.8202,0 1.50812,0.687917 1.50812,1.508125 0,0.211667 -0.0529,0.423334 -0.13229,0.608542 z"
         id="path13"
         style="fill:#4895ef;stroke-width:0px" />
      <path
         id="path140"
         d="M 0,0 C 1.849,-0.065 3.831,-0.755 5.412,-1.881 7.504,-3.367 8.96,-5.565 9.516,-8.06 9.69,-8.848 9.75,-9.431 9.75,-10.296 c 0,-0.864 -0.06,-1.447 -0.234,-2.235 -0.821,-3.692 -3.602,-6.645 -7.239,-7.687 -1.066,-0.305 -2.127,-0.425 -3.302,-0.379 -4.404,0.175 -8.226,3.196 -9.453,7.466 -0.306,1.058 -0.428,2.127 -0.382,3.302 0.131,3.285 1.87,6.342 4.643,8.16 1.347,0.884 2.833,1.424 4.48,1.625 0.262,0.033 1.104,0.077 1.246,0.063 C -0.444,0.016 -0.224,0.005 0,0 M -2.031,7.133 C -2.031,7.122 -2.11,6.658 -2.209,6.105 -2.307,5.549 -2.468,4.63 -2.566,4.06 -2.667,3.49 -2.751,3.021 -2.754,3.016 -2.757,3.013 -2.92,2.977 -3.116,2.942 -3.752,2.819 -4.39,2.648 -5.001,2.432 -5.3,2.329 -5.311,2.326 -5.358,2.375 -5.382,2.402 -5.971,3.106 -6.667,3.937 -7.362,4.769 -7.948,5.472 -7.975,5.5 -8.019,5.546 -8.079,5.513 -9.273,4.823 -9.96,4.425 -10.527,4.09 -10.533,4.076 -10.538,4.063 -10.219,3.171 -9.827,2.094 L -9.112,0.139 -9.221,0.041 c -0.788,-0.712 -0.908,-0.829 -1.674,-1.677 l -0.099,-0.106 -1.919,0.7 c -1.055,0.388 -1.947,0.704 -1.98,0.707 -0.051,0.005 -0.158,-0.167 -0.785,-1.246 -0.69,-1.195 -0.722,-1.255 -0.676,-1.298 0.027,-0.028 0.736,-0.622 1.576,-1.323 0.84,-0.7 1.543,-1.289 1.562,-1.306 0.028,-0.027 0.014,-0.095 -0.073,-0.346 -0.232,-0.679 -0.385,-1.243 -0.505,-1.876 -0.038,-0.202 -0.073,-0.368 -0.076,-0.371 -0.006,-0.002 -0.475,-0.087 -1.044,-0.188 -0.57,-0.098 -1.489,-0.259 -2.045,-0.357 -0.554,-0.098 -1.017,-0.177 -1.028,-0.177 -0.011,0 -0.022,-0.663 -0.022,-1.473 0,-0.809 0.011,-1.472 0.022,-1.472 0.011,0 0.474,-0.079 1.028,-0.177 0.556,-0.098 1.475,-0.259 2.045,-0.357 0.569,-0.101 1.038,-0.186 1.044,-0.188 0.003,-0.003 0.038,-0.169 0.076,-0.371 0.12,-0.633 0.273,-1.197 0.505,-1.876 0.087,-0.251 0.101,-0.319 0.073,-0.346 -0.019,-0.017 -0.722,-0.606 -1.562,-1.306 -0.84,-0.701 -1.549,-1.296 -1.576,-1.323 -0.046,-0.043 -0.014,-0.103 0.676,-1.298 0.627,-1.079 0.734,-1.251 0.785,-1.246 0.033,0.003 0.925,0.319 1.98,0.706 l 1.919,0.701 0.099,-0.106 c 0.766,-0.848 0.886,-0.965 1.674,-1.677 l 0.109,-0.098 -0.715,-1.955 c -0.392,-1.077 -0.711,-1.969 -0.706,-1.982 0.006,-0.014 0.573,-0.349 1.26,-0.747 1.194,-0.69 1.254,-0.723 1.298,-0.677 0.027,0.028 0.613,0.731 1.308,1.563 0.696,0.831 1.285,1.535 1.309,1.562 0.047,0.049 0.058,0.046 0.357,-0.057 0.611,-0.216 1.249,-0.387 1.885,-0.51 0.196,-0.036 0.359,-0.071 0.362,-0.074 0.003,-0.005 0.087,-0.474 0.188,-1.044 0.098,-0.57 0.259,-1.489 0.357,-2.045 0.099,-0.553 0.178,-1.017 0.178,-1.028 0,-0.011 0.66,-0.022 1.467,-0.022 h 1.466 l 0.142,0.797 c 0.077,0.439 0.24,1.368 0.363,2.066 0.12,0.698 0.223,1.271 0.229,1.276 0.003,0.003 0.188,0.044 0.412,0.088 0.692,0.136 1.145,0.256 1.835,0.493 0.25,0.087 0.319,0.101 0.346,0.074 0.016,-0.019 0.605,-0.723 1.306,-1.563 0.701,-0.839 1.295,-1.548 1.322,-1.576 0.044,-0.046 0.104,-0.013 1.298,0.677 0.687,0.398 1.254,0.733 1.26,0.747 0.005,0.019 -0.445,1.268 -1.268,3.517 l -0.155,0.42 0.177,0.153 c 0.591,0.518 1.047,0.97 1.554,1.554 l 0.15,0.174 0.504,-0.182 c 1.931,-0.709 3.409,-1.244 3.428,-1.244 0.013,0 0.256,0.401 0.54,0.892 0.28,0.493 0.608,1.058 0.725,1.259 0.172,0.295 0.207,0.374 0.18,0.399 -0.019,0.019 -0.728,0.613 -1.576,1.322 -0.848,0.709 -1.557,1.303 -1.576,1.32 -0.027,0.027 -0.014,0.095 0.073,0.346 0.229,0.671 0.409,1.339 0.521,1.941 0.033,0.175 0.071,0.319 0.082,0.319 0.011,0 0.619,0.104 1.352,0.232 0.734,0.128 1.647,0.289 2.029,0.354 0.382,0.069 0.703,0.123 0.714,0.123 0.014,0 0.022,0.663 0.022,1.472 0,0.81 -0.011,1.473 -0.022,1.473 -0.011,0 -0.469,0.079 -1.014,0.174 -0.548,0.096 -1.47,0.259 -2.05,0.36 l -1.056,0.186 -0.057,0.313 c -0.112,0.597 -0.292,1.268 -0.521,1.936 -0.087,0.251 -0.1,0.319 -0.073,0.346 0.019,0.017 0.728,0.611 1.576,1.32 0.848,0.709 1.557,1.303 1.576,1.322 0.027,0.025 -0.008,0.104 -0.18,0.398 -0.117,0.202 -0.445,0.767 -0.725,1.26 -0.284,0.491 -0.527,0.892 -0.54,0.892 -0.019,0 -1.497,-0.535 -3.428,-1.244 L 9.873,-1.742 9.723,-1.568 C 9.216,-0.984 8.76,-0.532 8.169,-0.014 L 7.992,0.139 8.147,0.559 C 8.97,2.808 9.42,4.057 9.415,4.076 9.409,4.09 8.842,4.425 8.155,4.823 6.961,5.513 6.901,5.546 6.857,5.5 6.83,5.472 6.236,4.763 5.535,3.924 4.834,3.084 4.245,2.38 4.229,2.361 4.202,2.334 4.133,2.348 3.883,2.435 3.193,2.672 2.74,2.792 2.048,2.928 1.824,2.972 1.639,3.013 1.636,3.016 1.63,3.021 1.527,3.594 1.407,4.292 1.284,4.99 1.121,5.919 1.044,6.358 L 0.902,7.155 h -1.466 c -0.807,0 -1.467,-0.011 -1.467,-0.022"
         style="fill:#ffffff;fill-opacity:1;fill-rule:nonzero;stroke:none"
         transform="matrix(0.25837913,0,0,-0.25837171,163.0606,88.971759)"
         clip-path="url(#clipPath141)" />
    </g>
  </g>
  <g
     id="layer3">
    <g
       id="g16"
       transform="translate(0,-1.5875001)">
      <g
         id="g10">
        <path
           style="display:none;fill:none;stroke:#000000;stroke-width:0.408658;stroke-linecap:round;stroke-linejoin:round"
           d="M 14.481643,36.988455 67.733339,6.243576"
           transform="matrix(0.86325826,0,0,0.86325821,9.2619739,9.235419)"
           id="path3" />
        <path
           style="font-weight:600;font-size:4.93889px;line-height:1.1;font-family:'Open Sans';-inkscape-font-specification:'Open Sans, Semi-Bold';font-variant-caps:all-small-caps;text-align:center;text-anchor:middle;fill:#023e8a;stroke-width:0.352778;stroke-linecap:round;stroke-linejoin:round"
           d="m 31.748441,31.329986 0.9064,-0.52331 q 0.630721,-0.364146 1.016686,-0.341935 0.388053,0.021 0.617152,0.417816 0.154341,0.267325 0.118993,0.524428 -0.03535,0.257102 -0.267793,0.452566 l 0.01206,0.02088 q 0.356594,-0.125125 0.610662,-0.03233 0.25495,0.0895 0.430994,0.394416 0.23754,0.41143 0.08438,0.811738 -0.15228,0.397013 -0.663957,0.69243 l -1.102717,0.636654 z m 1.22744,0.973259 0.48035,-0.27733 q 0.313272,-0.180868 0.400705,-0.362225 0.08623,-0.183446 -0.05123,-0.421533 -0.124195,-0.215113 -0.336297,-0.220749 -0.210014,-0.0068 -0.548347,0.188495 L 32.488744,31.4595 Z m 0.233922,0.405165 0.558278,0.966966 0.530473,-0.306269 q 0.313272,-0.180868 0.403267,-0.391551 0.09088,-0.213977 -0.05864,-0.472948 -0.137459,-0.238087 -0.366679,-0.258902 -0.229219,-0.02081 -0.561287,0.170904 z m 4.701915,-0.865657 -0.243758,-0.263038 -0.02506,0.01447 q -0.0095,0.219896 -0.146487,0.421516 -0.134909,0.200413 -0.377172,0.340284 -0.419784,0.242363 -0.747122,0.152887 -0.327338,-0.08948 -0.572112,-0.513436 l -0.871782,-1.50997 0.49497,-0.285771 0.822344,1.424343 q 0.153135,0.265236 0.338906,0.336198 0.184565,0.06887 0.416386,-0.06497 0.309095,-0.178456 0.347091,-0.445441 0.03888,-0.27028 -0.211924,-0.704684 l -0.664387,-1.150751 0.492881,-0.284565 1.333597,2.309857 z m 0.899934,-3.655078 q 0.148282,-0.08561 0.25641,-0.120192 l 0.216032,0.48511 q -0.118894,0.03523 -0.231672,0.100339 -0.294475,0.170016 -0.367329,0.468265 -0.07077,0.297043 0.106484,0.604049 l 0.696943,1.207141 -0.490792,0.283359 -1.333597,-2.309857 0.38428,-0.221864 0.299871,0.369874 0.02506,-0.01447 q -0.0045,-0.273077 0.109344,-0.500318 0.115939,-0.228446 0.328964,-0.351436 z m 2.977426,1.472179 q -0.538828,0.311092 -1.024613,0.173865 -0.484903,-0.140522 -0.80323,-0.69188 -0.326767,-0.565978 -0.231719,-1.052473 0.09505,-0.486495 0.587929,-0.77106 0.457377,-0.264067 0.882983,-0.139433 0.425606,0.124633 0.706554,0.611248 l 0.153134,0.265237 -1.539209,0.888663 q 0.204574,0.330216 0.480732,0.413039 0.274953,0.08074 0.586136,-0.09893 0.204671,-0.118167 0.358399,-0.257045 0.154611,-0.142173 0.305345,-0.348938 l 0.230305,0.398899 q -0.130172,0.189325 -0.29346,0.330938 -0.163288,0.141613 -0.399286,0.277867 z m -1.257003,-1.969799 q -0.23391,0.135048 -0.290316,0.365323 -0.05432,0.22907 0.08252,0.528778 l 1.048416,-0.605303 q -0.169369,-0.28371 -0.387436,-0.352734 -0.219274,-0.07111 -0.453183,0.06394 z m 4.133784,0.253196 -0.283849,-0.264954 -0.01671,0.0096 q -0.04529,0.307399 -0.169847,0.482341 -0.125758,0.172854 -0.390995,0.325989 -0.340422,0.196542 -0.638671,0.123688 -0.29616,-0.07406 -0.490292,-0.410305 -0.206189,-0.35713 -0.04586,-0.691962 0.160334,-0.334832 0.693692,-0.665043 l 0.391665,-0.242836 -0.07114,-0.12322 q -0.127813,-0.221379 -0.294937,-0.269691 -0.166242,-0.05161 -0.383444,0.0738 -0.177521,0.102492 -0.310278,0.248755 -0.132756,0.146263 -0.24213,0.304087 l -0.361296,-0.259224 q 0.131291,-0.20668 0.325819,-0.385822 0.193323,-0.181231 0.391729,-0.29578 0.440669,-0.25442 0.775068,-0.191299 0.336488,0.06191 0.574027,0.473345 l 0.898309,1.555917 z m -0.923893,0.08787 q 0.267326,-0.15434 0.342528,-0.395467 0.07608,-0.244422 -0.07946,-0.513836 l -0.115755,-0.200494 -0.28933,0.183753 q -0.339453,0.212691 -0.437888,0.408754 -0.09755,0.192769 0.02544,0.405794 0.08923,0.154548 0.230558,0.187121 0.140124,0.03048 0.32391,-0.07563 z m 3.588793,-1.626447 -0.243759,-0.263038 -0.02506,0.01447 q -0.0095,0.219897 -0.146487,0.421516 -0.134909,0.200414 -0.377173,0.340284 -0.419784,0.242363 -0.747122,0.152888 -0.327337,-0.08948 -0.572111,-0.513437 l -0.871782,-1.50997 0.49497,-0.285771 0.822344,1.424343 q 0.153134,0.265237 0.338905,0.336198 0.184566,0.06887 0.416387,-0.06497 0.309095,-0.178456 0.347091,-0.445441 0.03888,-0.27028 -0.211924,-0.704683 l -0.664387,-1.150752 0.492881,-0.284565 1.333596,2.309857 z m 3.000197,-1.676472 q -0.432316,0.249597 -0.855447,0.0762 -0.423131,-0.1734 -0.749898,-0.739378 -0.327973,-0.568066 -0.265695,-1.024503 0.06316,-0.459732 0.497565,-0.710535 0.455289,-0.26286 0.887506,-0.06408 l 0.02506,-0.01447 Q 49.691055,22.023405 49.607856,21.8793 l -0.485931,-0.841657 0.492881,-0.284565 1.876199,3.249673 -0.38428,0.221864 -0.260466,-0.253392 -0.02297,0.01326 q -0.03704,0.480852 -0.492332,0.743713 z m -0.09752,-0.472775 q 0.302829,-0.174839 0.343,-0.423587 0.03897,-0.250837 -0.177516,-0.63544 l -0.03979,-0.06892 q -0.252008,-0.436492 -0.500134,-0.538285 -0.248125,-0.101793 -0.550955,0.07305 -0.258971,0.149517 -0.277115,0.441241 -0.01935,0.289635 0.204926,0.678092 0.221864,0.38428 0.474576,0.508487 0.251507,0.122118 0.523009,-0.03463 z m 2.992159,-1.198441 q -0.538828,0.311092 -1.024613,0.173865 -0.484903,-0.140522 -0.80323,-0.69188 Q 51.07098,21.97299 51.166028,21.486495 51.261076,21 51.753957,20.715435 q 0.457377,-0.264066 0.882983,-0.139433 0.425606,0.124633 0.706554,0.611248 l 0.153134,0.265237 -1.539209,0.888663 q 0.204574,0.330216 0.480732,0.413039 0.274953,0.08074 0.586136,-0.09893 0.204671,-0.118166 0.358399,-0.257045 0.154611,-0.142173 0.305345,-0.348938 l 0.230305,0.398899 q -0.130172,0.189325 -0.29346,0.330938 -0.163288,0.141613 -0.399286,0.277867 z m -1.257003,-1.969799 q -0.23391,0.135048 -0.290316,0.365323 -0.05432,0.22907 0.08252,0.528778 l 1.048416,-0.605303 q -0.169369,-0.28371 -0.387436,-0.352734 -0.219274,-0.07111 -0.453183,0.06394 z m 3.860471,-0.46617 q 0.195337,0.338334 0.0538,0.662314 -0.142743,0.321891 -0.602209,0.587164 -0.461553,0.266478 -0.822197,0.288125 l -0.244774,-0.423961 q 0.515774,-0.04716 0.866638,-0.249737 0.4532,-0.261655 0.295242,-0.535245 -0.05064,-0.08772 -0.134528,-0.117255 -0.08389,-0.02954 -0.234925,-0.02588 -0.15104,0.0037 -0.401531,0.04247 -0.488127,0.07576 -0.719372,0.0032 -0.229156,-0.07376 -0.371438,-0.3202 -0.171222,-0.296564 -0.02719,-0.596925 0.144918,-0.303655 0.556348,-0.541194 0.407254,-0.235128 0.865906,-0.279944 l 0.0547,0.4613 q -0.463065,0.06129 -0.71786,0.208393 -0.388457,0.224276 -0.260644,0.445655 0.0627,0.108601 0.206356,0.125908 0.145744,0.0161 0.56213,-0.04887 0.350028,-0.0545 0.532568,-0.03737 0.182541,0.01713 0.31513,0.102093 0.131384,0.08287 0.227847,0.249948 z"
           id="text2"
           aria-label="Bureau des" />
      </g>
      <g
         id="g11">
        <path
           style="display:none;fill:none;stroke:#000000;stroke-width:0.408658;stroke-linecap:round;stroke-linejoin:round"
           d="M 67.733339,6.243576 120.98503,36.988458"
           transform="matrix(0.86325826,0,0,0.86325821,9.2619739,9.235419)"
           id="path9" />
        <path
           d="m 80.640365,22.077113 -1.727172,-0.997183 1.762856,-3.053356 1.727171,0.997183 -0.243568,0.421873 -1.228025,-0.709001 -0.479902,0.831215 1.150752,0.664387 -0.241157,0.417695 -1.150752,-0.664387 -0.553455,0.958612 1.228026,0.709001 z m 0.692615,-3.997062 0.03014,-0.05221 q 0.203448,-0.07746 0.432454,-0.184726 0.231095,-0.106056 0.377745,-0.191251 l 0.570154,0.329179 -0.02532,0.04386 q -0.182154,0.0647 -0.516317,0.141877 -0.330868,0.0763 -0.543057,0.101377 z m 0.980568,4.489688 q 0.179609,0.103697 0.391775,0.151006 l -0.213424,0.369661 q -0.101949,-0.01152 -0.244698,-0.06331 -0.141867,-0.04849 -0.279707,-0.128073 -0.697551,-0.402732 -0.273116,-1.137876 l 0.718647,-1.244734 -0.31536,-0.182073 0.125402,-0.217202 0.442031,0.01573 0.449231,-0.392241 0.30283,0.174839 -0.296623,0.513765 0.657871,0.379822 -0.21463,0.371749 -0.657871,-0.379822 -0.713824,1.23638 q -0.102491,0.17752 -0.06421,0.313791 0.04157,0.135388 0.185678,0.218587 z m 2.244806,1.769425 0.105918,-0.34262 -0.02506,-0.01447 q -0.195181,0.10173 -0.438287,0.0839 -0.241018,-0.01663 -0.483281,-0.156499 -0.419784,-0.242362 -0.505965,-0.570583 -0.08618,-0.32822 0.158593,-0.752181 l 0.871781,-1.50997 0.49497,0.28577 -0.822345,1.424343 q -0.153134,0.265237 -0.121704,0.4616 0.03264,0.194275 0.264458,0.328117 0.309095,0.178456 0.559309,0.07787 0.253508,-0.10147 0.504311,-0.535873 l 0.664387,-1.150752 0.492881,0.284565 -1.333597,2.309857 z m 1.840892,1.118534 q -0.432315,-0.249597 -0.493711,-0.70274 -0.0614,-0.453143 0.265372,-1.01912 0.327973,-0.568067 0.754398,-0.74235 0.42972,-0.175166 0.864123,0.07564 0.455289,0.26286 0.499244,0.736565 l 0.02506,0.01447 q 0.107984,-0.269027 0.191183,-0.413132 l 0.485931,-0.841657 0.492881,0.284565 -1.8762,3.249673 -0.38428,-0.221864 0.08921,-0.352267 -0.02297,-0.01326 q -0.434952,0.208346 -0.890241,-0.05451 z m 0.360673,-0.320847 q 0.30283,0.174839 0.538338,0.08525 0.236714,-0.09167 0.461549,-0.471454 l 0.03979,-0.06892 q 0.252009,-0.436492 0.216101,-0.702272 -0.03591,-0.265779 -0.338737,-0.440618 -0.258971,-0.149517 -0.520683,-0.01937 -0.260507,0.12806 -0.484783,0.516517 -0.221864,0.38428 -0.203074,0.665239 0.02,0.27887 0.291498,0.435621 z m 2.040135,1.651259 -0.490793,-0.283359 1.333597,-2.309857 0.490793,0.283359 z m 1.16686,-3.222022 q 0.07596,-0.131574 0.187969,-0.161585 0.114094,-0.02881 0.247756,0.04836 0.129486,0.07476 0.159498,0.186764 0.0321,0.11321 -0.04387,0.244784 -0.07235,0.125309 -0.187646,0.156203 -0.112005,0.03001 -0.24149,-0.04475 -0.133663,-0.07717 -0.165763,-0.19038 -0.02881,-0.114094 0.04354,-0.239403 z m 0.980095,4.461569 0.08753,-0.378298 -0.01671,-0.0096 q -0.288862,0.114473 -0.502643,0.09408 -0.212575,-0.02248 -0.477812,-0.175618 -0.340422,-0.196543 -0.426453,-0.491261 -0.08394,-0.293513 0.110189,-0.629758 0.206189,-0.357129 0.576328,-0.385693 0.37014,-0.02856 0.922791,0.268233 l 0.406134,0.217774 0.07114,-0.12322 q 0.127813,-0.221379 0.08609,-0.390269 -0.03843,-0.169773 -0.25563,-0.295174 -0.177521,-0.102492 -0.370567,-0.144331 -0.193046,-0.04184 -0.384413,-0.05765 l 0.04385,-0.442504 q 0.244635,0.01036 0.497041,0.08926 0.253612,0.07681 0.452018,0.191357 0.440669,0.25442 0.553204,0.575579 0.114623,0.322364 -0.122916,0.733795 l -0.898309,1.555916 z m -0.538043,-0.756181 q 0.267326,0.15434 0.513749,0.0989 0.249718,-0.05632 0.405264,-0.325733 l 0.115755,-0.200494 -0.303798,-0.15869 Q 90.786014,26.497833 90.567,26.510617 q -0.215719,0.0119 -0.338709,0.224927 -0.08923,0.154547 -0.04677,0.293229 0.04366,0.136594 0.227447,0.242703 z m 3.606015,2.527476 -0.492881,-0.284565 0.819933,-1.420165 q 0.15434,-0.267326 0.121703,-0.4616 -0.03055,-0.19307 -0.264457,-0.328117 -0.311183,-0.179662 -0.561397,-0.07907 -0.250214,0.100587 -0.499812,0.532902 l -0.664387,1.150752 -0.490792,-0.283359 1.333597,-2.309858 0.38428,0.221864 -0.105919,0.342621 0.02506,0.01447 q 0.199681,-0.1047 0.443669,-0.08357 0.243989,0.02113 0.477899,0.156175 0.831214,0.479902 0.342872,1.325736 z m 1.748373,0.536034 q 0.179609,0.103698 0.391775,0.151006 l -0.213424,0.369661 q -0.101949,-0.01152 -0.244698,-0.06331 -0.141867,-0.04849 -0.279706,-0.128073 -0.697552,-0.402731 -0.273116,-1.137876 l 0.718647,-1.244733 -0.315361,-0.182074 0.125402,-0.217201 0.442031,0.01573 0.449232,-0.392242 0.302829,0.174839 -0.296623,0.513766 0.657871,0.379821 -0.21463,0.37175 -0.65787,-0.379822 -0.713824,1.236379 q -0.102492,0.177521 -0.06421,0.313791 0.04157,0.135388 0.185678,0.218587 z m 0.693411,0.525652 q 0.08802,-0.152459 0.21441,-0.18809 0.126388,-0.03563 0.276758,0.05119 0.152459,0.08802 0.182384,0.219469 0.03113,0.129359 -0.05327,0.275553 -0.08561,0.148282 -0.217704,0.188972 -0.128799,0.03981 -0.27917,-0.04701 -0.15037,-0.08682 -0.180295,-0.218264 -0.02992,-0.131448 0.05689,-0.281818 z m 2.082805,1.606281 q -0.538827,-0.311092 -0.662878,-0.800408 -0.120756,-0.490199 0.197571,-1.041557 0.326768,-0.565978 0.795609,-0.726912 0.468841,-0.160933 0.961722,0.123632 0.457376,0.264067 0.562246,0.694969 0.10487,0.430902 -0.17608,0.917518 l -0.15314,0.265236 -1.539205,-0.888662 q -0.183689,0.342274 -0.117337,0.622846 0.06756,0.278483 0.378741,0.458145 0.204671,0.118167 0.401807,0.18186 0.200431,0.06281 0.454862,0.08997 l -0.230305,0.398899 q -0.229046,-0.01807 -0.43333,-0.08867 -0.204285,-0.07061 -0.440283,-0.206859 z m 1.077394,-2.073496 q -0.233909,-0.135048 -0.461537,-0.06876 -0.225538,0.0675 -0.416675,0.335852 l 1.048416,0.605304 q 0.161016,-0.288533 0.111758,-0.511897 -0.04805,-0.225452 -0.281962,-0.3605 z m 0.480026,2.568898 q 0.088,-0.152459 0.21441,-0.18809 0.12638,-0.03563 0.27675,0.05118 0.15246,0.08802 0.18239,0.21947 0.0311,0.129359 -0.0533,0.275552 -0.0856,0.148282 -0.2177,0.188973 -0.1288,0.03981 -0.27917,-0.04701 -0.15037,-0.08682 -0.1803,-0.218264 -0.0299,-0.131447 0.0569,-0.281817 z m 3.02974,1.220144 q -0.19533,0.338334 -0.54668,0.377749 -0.35014,0.03733 -0.8096,-0.227946 -0.46155,-0.266478 -0.66062,-0.567981 l 0.24477,-0.423961 q 0.29873,0.423091 0.6496,0.625662 0.4532,0.261655 0.61116,-0.01194 0.0506,-0.08772 0.0343,-0.175133 -0.0164,-0.08742 -0.0951,-0.216388 -0.0787,-0.128973 -0.23754,-0.326502 -0.30967,-0.384852 -0.36246,-0.621393 -0.0507,-0.235334 0.0916,-0.481775 0.17122,-0.296564 0.50336,-0.322006 0.33543,-0.02632 0.74686,0.211215 0.40726,0.235128 0.67539,0.609924 l -0.37214,0.278021 q -0.28461,-0.370383 -0.53941,-0.517488 -0.38846,-0.224276 -0.51627,-0.0029 -0.0627,0.108601 -0.006,0.241663 0.0589,0.134269 0.32338,0.462386 0.22222,0.275882 0.29865,0.442533 0.0764,0.166652 0.0691,0.323957 -0.006,0.155217 -0.10254,0.322295 z"
           id="text2-8"
           style="font-weight:600;font-size:4.93889px;line-height:1.1;font-family:'Open Sans';-inkscape-font-specification:'Open Sans, Semi-Bold';font-variant-caps:all-small-caps;text-align:center;text-anchor:middle;fill:#023e8a;stroke-width:0.352777;stroke-linecap:round;stroke-linejoin:round"
           aria-label="Étudiant.e.s" />
      </g>
    </g>
    <g
       id="g18"
       transform="translate(0,0.52916668)">
      <g
         id="g1">
        <text
           xml:space="preserve"
           style="font-style:normal;font-variant:normal;font-weight:600;font-stretch:normal;font-size:4.93889px;line-height:1.1;font-family:'Open Sans';-inkscape-font-specification:'Open Sans, Semi-Bold';font-variant-ligatures:normal;font-variant-caps:all-small-caps;font-variant-numeric:normal;font-variant-east-asian:normal;text-align:center;writing-mode:lr-tb;direction:ltr;text-anchor:middle;fill:#023e8a;stroke:none;stroke-width:0.352777;stroke-linecap:round;stroke-linejoin:round;stroke-dasharray:none"
           id="text16"><textPath
             xlink:href="#path7-5"
             startOffset="50%"
             id="textPath1"
             style="font-style:normal;font-variant:normal;font-weight:600;font-stretch:normal;font-size:4.93889px;font-family:'Open Sans';-inkscape-font-specification:'Open Sans, Semi-Bold';font-variant-ligatures:normal;font-variant-caps:all-small-caps;font-variant-numeric:normal;font-variant-east-asian:normal;stroke-width:0.352778">École polytec<tspan
   style="font-style:normal;font-variant:normal;font-weight:600;font-stretch:normal;font-size:4.93889px;font-family:'Open Sans';-inkscape-font-specification:'Open Sans, Semi-Bold';font-variant-ligatures:normal;font-variant-caps:all-small-caps;font-variant-numeric:normal;font-variant-east-asian:normal;letter-spacing:0px"
   id="tspan17">hniq</tspan><tspan
   style="font-style:normal;font-variant:normal;font-weight:600;font-stretch:normal;font-size:4.93889px;font-family:'Open Sans';-inkscape-font-specification:'Open Sans, Semi-Bold';font-variant-ligatures:normal;font-variant-caps:all-small-caps;font-variant-numeric:normal;font-variant-east-asian:normal;letter-spacing:0px"
   id="tspan1">ue</tspan></textPath></text>
        <path
           style="display:none;fill:none;stroke:#000000;stroke-width:0.352777;stroke-linecap:round;stroke-linejoin:round"
           d="M 21.76337,99.539216 67.733334,126.07999"
           id="path7-5" />
      </g>
      <g
         id="g3">
        <path
           style="display:none;fill:none;stroke:#000000;stroke-width:0.352777;stroke-linecap:round;stroke-linejoin:round"
           d="M 67.733334,126.07999 113.7033,99.539216"
           id="path1" />
        <text
           xml:space="preserve"
           style="font-style:normal;font-variant:normal;font-weight:600;font-stretch:normal;font-size:4.93889px;line-height:1.1;font-family:'Open Sans';-inkscape-font-specification:'Open Sans, Semi-Bold';font-variant-ligatures:normal;font-variant-caps:all-small-caps;font-variant-numeric:normal;font-variant-east-asian:normal;text-align:center;letter-spacing:0px;writing-mode:lr-tb;direction:ltr;text-anchor:middle;fill:#023e8a;stroke-width:0.352777;stroke-linecap:round;stroke-linejoin:round"
           id="text3"><textPath
             xlink:href="#path1"
             startOffset="50%"
             id="textPath3"><tspan
               id="tspan3"
               style="font-style:normal;font-variant:normal;font-weight:600;font-stretch:normal;font-size:4.93889px;font-family:'Open Sans';-inkscape-font-specification:'Open Sans, Semi-Bold';font-variant-ligatures:normal;font-variant-caps:all-small-caps;font-variant-numeric:normal;font-variant-east-asian:normal;stroke-width:0.352778">de Louvain-la-Neuve</tspan></textPath></text>
      </g>
    </g>
  </g>
</svg>
