<?xml version="1.0" encoding="UTF-8" standalone="no"?>
<!-- Created with Inkscape (http://www.inkscape.org/) -->

<svg
   width="32"
   height="32"
   viewBox="0 0 8.4666666 8.4666666"
   version="1.1"
   id="svg1"
   inkscape:version="1.4 (e7c3feb100, 2024-10-09)"
   sodipodi:docname="logo-32.svg"
   inkscape:export-filename="export/monochrome/logo-16.svg"
   inkscape:export-xdpi="96"
   inkscape:export-ydpi="96"
   xmlns:inkscape="http://www.inkscape.org/namespaces/inkscape"
   xmlns:sodipodi="http://sodipodi.sourceforge.net/DTD/sodipodi-0.dtd"
   xmlns="http://www.w3.org/2000/svg"
   xmlns:svg="http://www.w3.org/2000/svg">
  <sodipodi:namedview
     id="namedview1"
     pagecolor="#ffffff"
     bordercolor="#000000"
     borderopacity="0.25"
     inkscape:showpageshadow="2"
     inkscape:pageopacity="0.0"
     inkscape:pagecheckerboard="0"
     inkscape:deskcolor="#d1d1d1"
     inkscape:document-units="mm"
     showgrid="true"
     inkscape:zoom="29.28125"
     inkscape:cx="16.017076"
     inkscape:cy="16"
     inkscape:window-width="1663"
     inkscape:window-height="932"
     inkscape:window-x="0"
     inkscape:window-y="0"
     inkscape:window-maximized="1"
     inkscape:current-layer="layer1">
    <inkscape:grid
       type="modular"
       id="grid1"
       units="px"
       originx="0"
       originy="0"
       spacingx="6.8791671"
       spacingy="6.8791666"
       empcolor="#0047cb"
       empopacity="0.30196078"
       color="#0099e5"
       opacity="0.14901961"
       empspacing="0"
       marginx="0"
       marginy="0"
       gapx="1.5875"
       gapy="1.5875"
       enabled="true"
       visible="true" />
  </sodipodi:namedview>
  <defs
     id="defs1">
    <inkscape:path-effect
       effect="fillet_chamfer"
       id="path-effect7"
       is_visible="false"
       lpeversion="1"
       nodesatellites_param="F,0,0,1,0,0.26458334,0,1 @ F,0,0,1,0,0.26458334,0,1 @ F,0,0,1,0,0.26458334,0,1 @ F,0,0,1,0,0.26458334,0,1 @ F,0,0,1,0,0.26458334,0,1 @ F,0,0,1,0,0.26458334,0,1 @ F,0,0,1,0,0.26458334,0,1 @ F,0,0,1,0,0.26458334,0,1 @ F,0,0,1,0,0.26458334,0,1 @ F,0,0,1,0,0.26458334,0,1 @ F,0,0,1,0,0.26458334,0,1 @ F,0,0,1,0,0.26458334,0,1 | F,0,0,1,0,0.26458334,0,1 @ F,0,0,1,0,0.26458334,0,1 @ F,0,0,1,0,0.26458334,0,1 @ F,0,0,1,0,0.26458334,0,1 @ F,0,0,1,0,0.26458334,0,1 @ F,0,0,1,0,0.26458334,0,1 | F,0,0,1,0,0.26458334,0,1 @ F,0,0,1,0,0.26458334,0,1 @ F,0,0,1,0,0.26458334,0,1 @ F,0,0,1,0,0.26458334,0,1 @ F,0,0,1,0,0.26458334,0,1 @ F,0,0,1,0,0.26458334,0,1 | F,0,0,1,0,0.26458334,0,1 @ F,0,0,1,0,0.26458334,0,1 @ F,0,0,1,0,0.26458334,0,1 @ F,0,0,1,0,0.26458334,0,1 @ F,0,0,1,0,0.26458334,0,1 @ F,0,0,1,0,0.26458334,0,1 @ F,0,0,1,0,0.26458334,0,1 | F,0,0,1,0,0.26458334,0,1 @ F,0,0,1,0,0.26458334,0,1 @ F,0,0,1,0,0.26458334,0,1 @ F,0,0,1,0,0.26458334,0,1 @ F,0,0,1,0,0.26458334,0,1 @ F,0,0,1,0,0.26458334,0,1 @ F,0,0,1,0,0.26458334,0,1 | F,0,0,1,0,0.26458334,0,1 @ F,0,0,1,0,0.26458334,0,1 @ F,0,0,1,0,0.26458334,0,1 @ F,0,0,1,0,0.26458334,0,1 @ F,0,0,1,0,0.26458334,0,1 @ F,0,0,1,0,0.26458334,0,1 @ F,0,0,1,0,0.26458334,0,1 @ F,0,0,1,0,0.26458334,0,1 @ F,0,0,1,0,0.26458334,0,1 @ F,0,0,1,0,0.26458334,0,1 @ F,0,0,1,0,0.26458334,0,1 @ F,0,0,1,0,0.26458334,0,1 | F,0,0,1,0,0.26458334,0,1 @ F,0,0,1,0,0.26458334,0,1 @ F,0,0,1,0,0.26458334,0,1 @ F,0,0,1,0,0.26458334,0,1 @ F,0,0,1,0,0.26458334,0,1 @ F,0,0,1,0,0.26458334,0,1 @ F,0,0,1,0,0.26458334,0,1 @ F,0,0,1,0,0.26458334,0,1 @ F,0,0,1,0,0.26458334,0,1 | F,0,0,1,0,0.26458334,0,1 @ F,0,0,1,0,0.26458334,0,1 @ F,0,0,1,0,0.26458334,0,1 @ F,0,0,1,0,0.26458334,0,1 @ F,0,0,1,0,0.26458334,0,1 @ F,0,0,1,0,0.26458334,0,1 | F,0,0,1,0,0.26458334,0,1 @ F,0,0,1,0,0.26458334,0,1 @ F,0,0,1,0,0.26458334,0,1 @ F,0,0,1,0,0.26458334,0,1 @ F,0,0,1,0,0.26458334,0,1 @ F,0,0,1,0,0.26458334,0,1"
       radius="2"
       unit="px"
       method="auto"
       mode="F"
       chamfer_steps="1"
       flexible="false"
       use_knot_distance="true"
       apply_no_radius="true"
       apply_with_radius="true"
       only_selected="false"
       hide_knots="false" />
    <inkscape:path-effect
       effect="slice"
       start_point="75.427315,49.601104"
       end_point="64.657595,67.733336"
       center_point="70.042455,58.66722"
       id="path-effect8"
       is_visible="true"
       lpeversion="1.2"
       lpesatellites="#path8"
       allow_transforms="true" />
  </defs>
  <g
     inkscape:label="Layer 1"
     inkscape:groupmode="layer"
     id="layer1">
    <g
       inkscape:label="Background"
       inkscape:groupmode="layer"
       id="layer1-2"
       style="display:inline"
       transform="matrix(0.05514655,0,0,0.05514655,0.49807379,0.49807379)">
      <path
         sodipodi:type="star"
         style="fill:none;stroke:#023e8a;stroke-width:1.76389;stroke-linecap:round;stroke-linejoin:round;stroke-dasharray:none"
         id="path6"
         inkscape:flatsided="true"
         sodipodi:sides="6"
         sodipodi:cx="67.733337"
         sodipodi:cy="67.733337"
         sodipodi:r1="61.489761"
         sodipodi:r2="53.251698"
         sodipodi:arg1="-1.5707963"
         sodipodi:arg2="-1.0471976"
         inkscape:rounded="0"
         inkscape:randomized="0"
         d="m 67.733339,6.243576 53.251691,30.744882 0,61.489762 -53.251694,30.74488 -53.251695,-30.744883 2e-6,-61.489762 z"
         inkscape:label="border" />
      <path
         sodipodi:type="star"
         style="fill:#023e8a;stroke:#023e8a;stroke-width:1.76389;stroke-linecap:round;stroke-linejoin:round;stroke-dasharray:none"
         id="path7"
         inkscape:flatsided="true"
         sodipodi:sides="6"
         sodipodi:cx="67.733337"
         sodipodi:cy="67.733337"
         sodipodi:r1="61.489761"
         sodipodi:r2="53.251698"
         sodipodi:arg1="-1.5707963"
         sodipodi:arg2="-1.0471976"
         inkscape:rounded="0"
         inkscape:randomized="0"
         d="m 67.733339,6.243576 53.251691,30.744882 0,61.489762 -53.251694,30.74488 -53.251695,-30.744883 2e-6,-61.489762 z"
         transform="matrix(0.85405809,0,0,0.85405809,9.8851324,9.8851324)"
         inkscape:label="background" />
    </g>
    <g
       id="g8"
       inkscape:label="bdepl"
       transform="matrix(0.06149488,0,0,0.06149488,0.08492494,0.66196166)"
       style="fill:#000000">
      <path
         style="font-weight:800;font-size:25.4px;line-height:1.1;font-family:'Open Sans';-inkscape-font-specification:'Open Sans, Ultra-Bold';font-variant-caps:all-small-caps;text-align:center;text-anchor:middle;display:inline;fill:#4895ef;stroke-width:1.76389;stroke-linecap:round;stroke-linejoin:round"
         d="m 28.898437,49.601562 v 18.13086 h 7.056641 c 2.133203,0 3.814908,-0.469531 5.046875,-1.41211 1.240234,-0.950845 1.861328,-2.249153 1.861328,-3.894531 0,-1.107942 -0.251497,-2.010547 -0.755859,-2.705078 -0.504362,-0.694531 -1.31888,-1.190625 -2.44336,-1.488281 v -0.123047 c 0.851629,-0.206706 1.537696,-0.669336 2.058594,-1.388672 0.520898,-0.719335 0.78125,-1.588476 0.78125,-2.605469 0,-1.546158 -0.599935,-2.682551 -1.798828,-3.410156 -1.190625,-0.735872 -3.018489,-1.103515 -5.482422,-1.103516 z m 17.115235,0 v 18.13086 h 5.865234 c 3.017904,0 5.35957,-0.817969 7.021485,-2.455078 1.670182,-1.63711 2.503906,-3.967969 2.503906,-6.994141 0,-2.811198 -0.79336,-4.960937 -2.38086,-6.449219 -1.579232,-1.488281 -3.823958,-2.232421 -6.734375,-2.232422 z m 29.40625,0.01199 v -0.01199 H 64.654297 v 18.13086 h 0.0038 z m -4.021793,6.771215 h -1.845395 v -2.851563 h 3.539093 z M 33.796875,53.308594 h 1.376953 c 1.537891,0 2.306641,0.508398 2.306641,1.52539 0,0.570508 -0.193425,1.001628 -0.582032,1.291016 -0.380338,0.289388 -0.922199,0.433594 -1.625,0.433594 h -1.476562 z m 17.115234,0.248047 h 1.425782 c 1.339453,0 2.337044,0.401107 2.990234,1.203125 0.661459,0.802018 0.992187,2.035351 0.992187,3.697265 10e-7,1.77767 -0.348437,3.100586 -1.042968,3.96875 -0.694532,0.859896 -1.785156,1.289063 -3.273438,1.289063 h -1.091797 z m -17.115234,6.585937 h 1.625 c 0.777213,0 1.368294,0.161914 1.773437,0.484375 0.413412,0.322461 0.621094,0.785091 0.621094,1.388672 0,1.289843 -0.765299,1.935547 -2.294922,1.935547 h -1.724609 z"
         id="text7"
         aria-label="BDEPL"
         inkscape:path-effect="#path-effect7;#path-effect8"
         inkscape:original-d="m 28.898148,49.60111 h 6.325196 q 3.695899,0 5.481836,1.103808 1.79834,1.091407 1.79834,3.410645 0,1.525489 -0.781347,2.604492 -0.781348,1.079004 -2.05879,1.389063 v 0.124024 q 1.686719,0.446484 2.443262,1.488281 0.756543,1.041797 0.756543,2.703711 0,2.468067 -1.860351,3.894336 -1.84795,1.413867 -5.047755,1.413867 h -7.056934 z m 4.898926,6.957715 h 1.475879 q 1.0542,0 1.624708,-0.434082 0.58291,-0.434082 0.58291,-1.289844 0,-1.525488 -2.306836,-1.525488 h -1.376661 z m 0,3.584278 v 3.807519 H 35.521 q 2.294434,0 2.294434,-1.934765 0,-0.905372 -0.620117,-1.389063 -0.607715,-0.483691 -1.773535,-0.483691 z m 27.60762,-1.860352 q 0,4.539258 -2.505273,6.994922 -2.492872,2.455664 -7.019727,2.455664 H 46.013385 V 49.60111 h 6.275586 q 4.365625,0 6.734473,2.232422 2.38125,2.232422 2.38125,6.449219 z m -5.084961,0.173633 q 0,-2.492872 -0.992188,-3.695899 -0.979785,-1.203027 -2.988965,-1.203027 h -1.426269 v 10.15752 h 1.091406 q 2.232422,0 3.274219,-1.289844 1.041797,-1.302246 1.041797,-3.96875 z m 19.099609,9.276953 H 64.654107 V 49.60111 h 10.765235 v 3.931543 h -5.866309 v 2.852539 h 5.432227 v 3.931543 h -5.432227 v 3.423047 h 5.866309 z M 91.753233,55.3682 q 0,3.038574 -1.79834,4.700489 -1.785937,1.649511 -5.084961,1.649511 h -1.37666 v 6.015137 H 78.594346 V 49.60111 h 6.275586 q 3.43545,0 5.159375,1.500683 1.723926,1.500684 1.723926,4.266407 z m -8.259961,2.356445 h 0.892969 q 1.103808,0 1.74873,-0.620117 0.657325,-0.620117 0.657325,-1.711523 0,-1.835547 -2.033985,-1.835547 H 83.493272 Z M 94.642976,67.733337 V 49.60111 h 4.898926 v 14.17588 h 6.982518 v 3.956347 z"
         transform="translate(-0.52916668,-0.52916668)" />
      <path
         id="path8"
         d="m 64.658138,67.732422 h 10.761784 v -3.992188 h -5.867188 v -3.423828 h 5.431641 v -3.93164 h -3.586246 z m 8.433689,-14.199219 h 2.328095 v -3.919652 z m 5.501923,-3.931641 v 18.13086 h 4.900391 V 61.71875 h 1.375 c 2.199349,0 3.895312,-0.550717 5.085937,-1.650391 1.198893,-1.107943 1.798828,-2.673502 1.798828,-4.699218 0,-1.843816 -0.575325,-3.267123 -1.724609,-4.267579 -1.149283,-1.000455 -2.869856,-1.499999 -5.160156,-1.5 z m 16.048828,0 v 18.13086 H 106.52539 V 63.777344 H 99.541016 V 49.601562 Z m -11.148437,3.955079 h 1.263671 c 1.355991,0 2.035157,0.612239 2.035157,1.835937 0,0.727604 -0.219987,1.299479 -0.658203,1.712891 -0.429948,0.413411 -1.012175,0.61914 -1.748047,0.61914 h -0.892578 z"
         style="font-weight:800;font-size:25.4px;line-height:1.1;font-family:'Open Sans';-inkscape-font-specification:'Open Sans, Ultra-Bold';font-variant-caps:all-small-caps;text-align:center;text-anchor:middle;display:inline;fill:#ffffff;stroke:none;stroke-width:0.705556;stroke-linecap:round;stroke-linejoin:round;stroke-dasharray:none" />
    </g>
  </g>
</svg>
